<svg width="15" height="20" viewBox="0 0 15 20" fill="none" xmlns="http://www.w3.org/2000/svg">
<path d="M8.92539 17.0928L8.92148 17.0896M8.92539 17.0928L12.3781 19.6733M8.92539 17.0928L9.54906 16.3111L9.54516 16.308L9.53835 16.3025L9.53463 16.2997M8.92539 17.0928L9.02006 16.9661L9.13634 16.8105L9.52405 16.2917L9.53141 16.2972L9.53463 16.2997M8.92148 17.0896L14.4934 19.5459M8.92148 17.0896C8.08398 16.445 6.91602 16.445 6.07891 17.0896L6.075 17.0928M8.92148 17.0896L1 0V1M12.3781 19.6733C12.6422 19.8692 12.95 19.981 13.2699 19.9977C13.7184 20.0215 14.1648 19.8567 14.4934 19.5459M12.3781 19.6733L12.9768 18.8723L12.975 18.871L14 1M12.3781 19.6733L12.974 18.8702L9.53463 16.2997M14.4934 19.5459L13.8061 18.8195C13.806 18.8196 13.8058 18.8197 13.8057 18.8198L14.4934 19.5459ZM9.53463 16.2997L9.53144 16.2972C8.33448 15.3759 6.66558 15.3757 5.46877 16.2973L5.46586 16.2996M5.46586 16.2996L2.02486 18.871L2.6207 19.6741M5.46586 16.2996L5.4688 16.2974L5.4764 16.2917L5.86843 16.8163L5.98073 16.9666L6.075 17.0928M5.46586 16.2996L5.46193 16.3026L5.45519 16.308L5.45128 16.3111L6.075 17.0928M2.6207 19.6741L2.0221 18.873L2.02364 18.8719C1.91605 18.9513 1.79698 18.9925 1.67818 18.9987L1.67756 18.9988C1.50461 19.0079 1.32519 18.943 1.19432 18.8191L1.19333 18.8182C1.06894 18.7008 1 18.5449 1 18.3622V1M2.6207 19.6741C2.3582 19.8688 2.05039 19.9806 1.73047 19.9974C1.28203 20.0211 0.835547 19.8563 0.507031 19.5455C0.179687 19.2366 0 18.8164 0 18.3622V1H1M2.6207 19.6741L6.075 17.0928M1 1H14M14 1V0H15V1H14Z" stroke="#31456A" stroke-width="2"/>
</svg>
