<svg width="200" height="30" viewBox="0 0 200 30" fill="none" xmlns="http://www.w3.org/2000/svg">
<path d="M0.52 0.999998H21.12V6.28H13.56V29H8.04V6.28H0.52V0.999998ZM29.7216 17.44V23.72H41.5216V29H24.2016V0.999998H41.3216V6.28H29.7216V12.24H40.3216V17.44H29.7216ZM61.6125 18.08V0.999998H67.1325V29H62.9325L50.9325 11.88V29H45.4125V0.999998H49.6125L61.6125 18.08ZM72.3266 0.999998H83.4466C87.2866 0.999998 90.4866 2.34666 93.0466 5.04C95.6332 7.70667 96.9266 11.0267 96.9266 15C96.9266 18.9733 95.6332 22.2933 93.0466 24.96C90.4866 27.6533 87.2866 29 83.4466 29H72.3266V0.999998ZM77.8466 23.72H83.4466C85.8732 23.72 87.8466 22.92 89.3666 21.32C90.8866 19.6667 91.6466 17.56 91.6466 15C91.6466 12.4133 90.8866 10.32 89.3666 8.72C87.8466 7.09333 85.8732 6.28 83.4466 6.28H77.8466V23.72ZM106.362 17.44V23.72H118.162V29H100.842V0.999998H117.962V6.28H106.362V12.24H116.962V17.44H106.362ZM143.373 29H137.413L131.773 19.28H127.573V29H122.053V0.999998H133.253C135.84 0.999998 138.04 1.90667 139.853 3.72C141.666 5.53333 142.573 7.72 142.573 10.28C142.573 12.0133 142.08 13.6267 141.093 15.12C140.106 16.5867 138.8 17.6933 137.173 18.44L143.373 29ZM133.253 6.16H127.573V14.44H133.253C134.293 14.44 135.186 14.04 135.933 13.24C136.68 12.4133 137.053 11.4267 137.053 10.28C137.053 9.13333 136.68 8.16 135.933 7.36C135.186 6.56 134.293 6.16 133.253 6.16Z" fill="#7878AB"/>
<path d="M159.783 29.56C167.823 29.56 174.343 23.24 174.343 15C174.343 6.76 167.823 0.439998 159.783 0.439998C151.743 0.439998 145.223 6.76 145.223 15C145.223 23.24 151.743 29.56 159.783 29.56ZM159.783 23.32C155.223 23.32 151.623 20 151.623 15C151.623 10 155.223 6.68 159.783 6.68C164.343 6.68 167.943 10 167.943 15C167.943 20 164.343 23.32 159.783 23.32ZM193.547 0.999998V16.2L182.747 0.999998H177.947V29H184.347V13.8L195.147 29H199.947V0.999998H193.547Z" fill="#46D0DB"/>
</svg>
